<svg width="1281" height="296" viewBox="0 0 1281 296" fill="none" xmlns="http://www.w3.org/2000/svg">
<path d="M473.969 88.1335C472.832 78.0483 468.145 70.2358 459.906 64.696C451.668 59.0852 441.298 56.2798 428.798 56.2798C419.849 56.2798 412.108 57.7003 405.574 60.5412C399.04 63.3111 393.962 67.1463 390.339 72.0469C386.788 76.8764 385.013 82.3807 385.013 88.5597C385.013 93.7443 386.22 98.2187 388.635 101.983C391.121 105.747 394.352 108.908 398.33 111.464C402.378 113.95 406.71 116.045 411.327 117.75C415.943 119.384 420.382 120.733 424.643 121.798L445.95 127.338C452.911 129.043 460.048 131.351 467.364 134.263C474.679 137.175 481.462 141.01 487.712 145.768C493.962 150.527 499.004 156.422 502.839 163.453C506.746 170.484 508.699 178.901 508.699 188.702C508.699 201.06 505.503 212.033 499.111 221.621C492.79 231.209 483.592 238.773 471.518 244.312C459.516 249.852 444.991 252.622 427.946 252.622C411.611 252.622 397.477 250.03 385.545 244.845C373.614 239.661 364.274 232.31 357.527 222.793C350.78 213.205 347.051 201.841 346.341 188.702H379.366C380.006 196.585 382.563 203.155 387.037 208.411C391.582 213.595 397.371 217.466 404.402 220.023C411.504 222.509 419.281 223.751 427.733 223.751C437.037 223.751 445.311 222.295 452.555 219.384C459.871 216.401 465.624 212.281 469.814 207.026C474.004 201.699 476.099 195.484 476.099 188.382C476.099 181.919 474.253 176.628 470.56 172.509C466.938 168.389 462.001 164.98 455.751 162.281C449.572 159.582 442.577 157.203 434.764 155.143L408.983 148.112C391.511 143.354 377.662 136.358 367.435 127.125C357.278 117.892 352.2 105.676 352.2 90.4773C352.2 77.9062 355.609 66.9332 362.428 57.5582C369.246 48.1832 378.479 40.9034 390.126 35.7188C401.774 30.4631 414.913 27.8352 429.544 27.8352C444.317 27.8352 457.349 30.4276 468.642 35.6122C480.006 40.7969 488.955 47.9347 495.489 57.0256C502.023 66.0454 505.432 76.4148 505.716 88.1335H473.969ZM616.005 252.303C599.883 252.303 585.998 248.858 574.35 241.969C562.774 235.009 553.825 225.243 547.504 212.672C541.254 200.03 538.129 185.222 538.129 168.247C538.129 151.486 541.254 136.713 547.504 123.929C553.825 111.145 562.632 101.166 573.924 93.9929C585.288 86.8196 598.569 83.233 613.768 83.233C623.001 83.233 631.95 84.7599 640.615 87.8139C649.279 90.8679 657.056 95.6619 663.946 102.196C670.835 108.73 676.268 117.217 680.245 127.658C684.223 138.027 686.211 150.634 686.211 165.477V176.77H556.133V152.906H654.997C654.997 144.526 653.292 137.104 649.883 130.641C646.474 124.107 641.68 118.957 635.501 115.193C629.393 111.429 622.22 109.547 613.981 109.547C605.032 109.547 597.22 111.749 590.544 116.152C583.939 120.484 578.825 126.166 575.203 133.197C571.652 140.158 569.876 147.722 569.876 155.889V174.533C569.876 185.47 571.794 194.774 575.629 202.445C579.535 210.115 584.968 215.974 591.929 220.023C598.889 224 607.021 225.989 616.325 225.989C622.362 225.989 627.866 225.136 632.838 223.432C637.809 221.656 642.106 219.028 645.728 215.548C649.351 212.068 652.12 207.771 654.038 202.658L684.187 208.091C681.772 216.969 677.44 224.746 671.19 231.422C665.011 238.027 657.234 243.176 647.859 246.869C638.555 250.491 627.937 252.303 616.005 252.303ZM753.408 151.841V249H721.554V85.3636H752.129V111.997H754.153C757.918 103.332 763.813 96.3722 771.838 91.1165C779.935 85.8608 790.126 83.233 802.413 83.233C813.564 83.233 823.33 85.5767 831.71 90.2642C840.091 94.8807 846.589 101.77 851.206 110.932C855.822 120.094 858.131 131.422 858.131 144.916V249H826.277V148.751C826.277 136.891 823.188 127.622 817.009 120.946C810.83 114.199 802.342 110.825 791.547 110.825C784.161 110.825 777.591 112.423 771.838 115.619C766.156 118.815 761.646 123.503 758.308 129.682C755.041 135.79 753.408 143.176 753.408 151.841ZM962.108 252.196C948.898 252.196 937.108 248.822 926.739 242.075C916.44 235.257 908.344 225.562 902.449 212.991C896.625 200.349 893.713 185.186 893.713 167.501C893.713 149.817 896.661 134.689 902.555 122.118C908.521 109.547 916.689 99.9233 927.058 93.2472C937.428 86.571 949.182 83.233 962.321 83.233C972.477 83.233 980.645 84.9375 986.824 88.3466C993.074 91.6847 997.903 95.5909 1001.31 100.065C1004.79 104.54 1007.49 108.482 1009.41 111.891H1011.33V30.8182H1043.18V249H1012.07V223.538H1009.41C1007.49 227.018 1004.72 230.996 1001.1 235.47C997.548 239.945 992.648 243.851 986.398 247.189C980.148 250.527 972.051 252.196 962.108 252.196ZM969.139 225.03C978.301 225.03 986.043 222.615 992.364 217.786C998.756 212.885 1003.59 206.102 1006.85 197.438C1010.19 188.773 1011.86 178.687 1011.86 167.182C1011.86 155.818 1010.23 145.875 1006.96 137.352C1003.69 128.83 998.898 122.189 992.577 117.43C986.256 112.672 978.443 110.293 969.139 110.293C959.551 110.293 951.561 112.778 945.169 117.75C938.777 122.722 933.947 129.504 930.68 138.098C927.484 146.692 925.886 156.386 925.886 167.182C925.886 178.119 927.52 187.956 930.787 196.692C934.054 205.428 938.884 212.352 945.276 217.466C951.739 222.509 959.693 225.03 969.139 225.03Z" fill="white"/>
<path d="M1088.64 249V85.3636H1120.5V249H1088.64ZM1104.73 60.1151C1099.19 60.1151 1094.43 58.2685 1090.45 54.5753C1086.55 50.8111 1084.6 46.3366 1084.6 41.152C1084.6 35.8963 1086.55 31.4219 1090.45 27.7287C1094.43 23.9645 1099.19 22.0824 1104.73 22.0824C1110.27 22.0824 1114.99 23.9645 1118.9 27.7287C1122.88 31.4219 1124.87 35.8963 1124.87 41.152C1124.87 46.3366 1122.88 50.8111 1118.9 54.5753C1114.99 58.2685 1110.27 60.1151 1104.73 60.1151ZM1239.74 85.3636V110.932H1150.35V85.3636H1239.74ZM1174.32 46.1591H1206.18V200.953C1206.18 207.132 1207.1 211.784 1208.95 214.909C1210.79 217.963 1213.17 220.058 1216.09 221.195C1219.07 222.26 1222.3 222.793 1225.78 222.793C1228.34 222.793 1230.57 222.615 1232.49 222.26C1234.41 221.905 1235.9 221.621 1236.97 221.408L1242.72 247.722C1240.87 248.432 1238.24 249.142 1234.84 249.852C1231.43 250.634 1227.16 251.06 1222.05 251.131C1213.67 251.273 1205.86 249.781 1198.61 246.656C1191.37 243.531 1185.51 238.702 1181.04 232.168C1176.56 225.634 1174.32 217.43 1174.32 207.558V46.1591Z" fill="#79D4AC"/>
<rect width="101" height="20" transform="translate(27 163)" fill="white"/>
<rect width="101" height="20" transform="translate(27 30)" fill="white"/>
<rect width="145" height="22" transform="translate(27 227)" fill="white"/>
<path d="M257.139 111.413C261.007 107.471 260.945 101.139 257.002 97.272L192.747 34.2535C188.805 30.3863 182.473 30.4478 178.606 34.3908C174.739 38.3338 174.8 44.6652 178.743 48.5323L235.859 104.549L179.842 161.664C175.975 165.607 176.036 171.938 179.979 175.806C183.922 179.673 190.254 179.611 194.121 175.668L257.139 111.413ZM27.3652 106.574L27.4624 116.573L250.097 114.411L250 104.411L249.903 94.4119L27.2681 96.5742L27.3652 106.574Z" fill="#79D4AC"/>
</svg>
